<svg width="492" height="100" viewBox="0 0 492 100" fill="none" xmlns="http://www.w3.org/2000/svg">
<g clip-path="url(#clip0_114_967)">
<path d="M133.272 93.7627C129.575 93.7627 126.176 93.3573 123.074 92.5464C119.973 91.7356 117.294 90.379 115.039 88.4766C112.783 86.5742 111.013 83.9701 109.728 80.6643C108.444 77.3585 107.802 73.2419 107.802 68.3144C107.802 60.6425 109.697 54.5923 113.488 50.1638C117.279 45.7353 122.965 43.521 130.546 43.521C131.549 43.521 132.865 43.599 134.494 43.7549C136.123 43.9108 137.814 44.3007 139.569 44.9244C141.323 45.5481 142.89 46.6085 144.268 48.1054L141.449 52.4092V25.5575H155.359V80.0094C155.359 82.3172 154.732 84.3287 153.479 86.044C152.226 87.7593 150.55 89.1783 148.451 90.301C146.352 91.4237 143.986 92.2813 141.355 92.8739C138.723 93.4664 136.029 93.7627 133.272 93.7627ZM133.836 82.0677C136.091 82.0677 137.924 81.7714 139.334 81.1789C140.744 80.5863 141.449 79.6975 141.449 78.5124V56.713C140.321 56.0892 139.115 55.6058 137.83 55.2628C136.546 54.9197 135.308 54.7482 134.118 54.7482C131.486 54.7482 129.262 55.1848 127.445 56.058C125.628 56.9313 124.265 58.397 123.356 60.4554C122.448 62.5137 121.994 65.2893 121.994 68.7822C121.994 71.5266 122.369 73.8812 123.121 75.846C123.873 77.8107 125.111 79.3389 126.834 80.4304C128.557 81.5219 130.891 82.0677 133.836 82.0677Z" fill="white"/>
<path d="M187.972 93.7627C183.586 93.7627 179.701 93.0766 176.317 91.7044C172.934 90.3321 170.302 88.227 168.423 85.3891C166.543 82.5511 165.603 78.8555 165.603 74.3022V45.0179H179.607V73.1795C179.607 76.1734 180.28 78.4033 181.628 79.869C182.975 81.3348 185.121 82.0677 188.066 82.0677C191.011 82.0677 193.235 81.3348 194.551 79.869C195.866 78.4033 196.524 76.1734 196.524 73.1795V45.0179H209.682V74.3022C209.682 81.0385 207.74 85.966 203.855 89.0847C199.97 92.2034 194.676 93.7627 187.972 93.7627Z" fill="white"/>
<path d="M241.622 93.7627C233.602 93.7627 227.571 91.6265 223.53 87.3539C219.488 83.0813 217.468 76.7972 217.468 68.5016C217.468 59.5822 219.52 53.1733 223.624 49.275C227.728 45.3767 233.727 43.4275 241.622 43.4275C246.948 43.4275 251.412 44.3163 255.015 46.0939C258.618 47.8716 261.343 50.6004 263.192 54.2804C265.04 57.9605 265.964 62.7008 265.964 68.5016C265.964 76.7972 263.865 83.0813 259.667 87.3539C255.469 91.6265 249.454 93.7627 241.622 93.7627ZM241.622 82.6291C243.94 82.6291 245.867 82.0833 247.402 80.9918C248.937 79.9003 250.096 78.3098 250.879 76.2203C251.663 74.1308 252.054 71.5579 252.054 68.5016C252.054 65.0087 251.663 62.2486 250.879 60.2215C250.096 58.1944 248.921 56.7286 247.355 55.8242C245.789 54.9198 243.878 54.4676 241.622 54.4676C239.241 54.4676 237.299 54.9354 235.795 55.871C234.291 56.8066 233.179 58.2879 232.458 60.3151C231.738 62.3422 231.377 65.071 231.377 68.5016C231.377 73.2419 232.208 76.7816 233.868 79.1206C235.528 81.4596 238.113 82.6291 241.622 82.6291Z" fill="white"/>
<path d="M287.863 92.3594H273.953V27.1481H287.863V92.3594Z" fill="#F7F7F8"/>
<path d="M316.247 93.7628C313.364 93.7628 310.654 93.4977 308.117 92.9675C305.579 92.4373 303.355 91.5641 301.444 90.3478C299.533 89.1315 298.045 87.4786 296.979 85.3891C295.914 83.2996 295.382 80.6956 295.382 77.5769C295.382 74.6453 295.993 72.088 297.214 69.905C298.436 67.7219 300.3 66.0378 302.807 64.8527C305.313 63.6676 308.477 63.0751 312.299 63.0751C314.429 63.0751 316.497 63.2934 318.502 63.73C320.507 64.1666 322.309 64.7592 323.906 65.5077C325.504 66.2561 326.773 67.067 327.713 67.9402L328.277 74.6765C327.024 73.9281 325.52 73.3355 323.765 72.8989C322.011 72.4623 320.131 72.244 318.126 72.244C315.056 72.244 312.816 72.6962 311.406 73.6006C309.997 74.505 309.292 75.924 309.292 77.8576C309.292 79.0427 309.636 80.103 310.325 81.0386C311.015 81.9742 311.939 82.6915 313.098 83.1905C314.257 83.6895 315.463 83.939 316.716 83.939C319.912 83.939 322.152 83.7207 323.436 83.284C324.721 82.8474 325.363 81.9742 325.363 80.6644V63.2622C325.363 60.393 324.439 58.3191 322.591 57.0405C320.742 55.7618 318.126 55.1225 314.743 55.1225C311.986 55.1225 309.213 55.6059 306.425 56.5727C303.637 57.5395 301.365 58.709 299.611 60.0812V47.7313C301.24 46.7333 303.762 45.7977 307.177 44.9245C310.592 44.0512 314.429 43.6146 318.69 43.6146C320.194 43.6146 321.854 43.7394 323.671 43.9889C325.488 44.2384 327.306 44.6906 329.123 45.3455C330.94 46.0004 332.616 46.9516 334.151 48.1991C335.686 49.4465 336.923 51.0371 337.863 52.9706C338.803 54.9042 339.273 57.3056 339.273 60.1747L339.179 82.5356C339.179 85.2176 338.271 87.3851 336.453 89.038C334.636 90.6909 332.021 91.8916 328.606 92.64C325.191 93.3885 321.071 93.7628 316.247 93.7628Z" fill="#F7F7F8"/>
<path d="M349.47 49.041C350.661 48.4173 352.227 47.778 354.17 47.1231C356.112 46.4681 358.242 45.8912 360.561 45.3922C362.879 44.8932 365.213 44.4878 367.563 44.1759C369.912 43.8641 372.09 43.7081 374.095 43.7081C378.355 43.7081 381.99 44.2539 384.997 45.3454C388.005 46.437 390.307 48.199 391.905 50.6316C393.503 53.0641 394.302 56.3699 394.302 60.5489V92.3593H380.298V63.3557C380.298 62.1706 380.125 61.0791 379.781 60.0811C379.436 59.0831 378.919 58.2255 378.23 57.5082C377.541 56.7909 376.601 56.2296 375.411 55.8241C374.22 55.4187 372.779 55.216 371.087 55.216C369.646 55.216 368.205 55.3875 366.764 55.7306C365.323 56.0736 364.226 56.4323 363.474 56.8065V92.3593H349.47V49.041Z" fill="#F7F7F8"/>
<path d="M427.087 93.5756C423.704 93.5756 420.508 93.0766 417.501 92.0786C414.493 91.0807 411.83 89.5837 409.512 87.5877C407.193 85.5918 405.376 83.0657 404.061 80.0094C402.745 76.9531 402.087 73.3978 402.087 69.3436C402.087 65.0398 402.714 61.2818 403.967 58.0696C405.22 54.8574 406.959 52.1909 409.183 50.0702C411.407 47.9495 414.023 46.359 417.031 45.2986C420.038 44.2383 423.359 43.7081 426.993 43.7081C429.562 43.7081 432.209 43.9732 434.935 44.5034C437.661 45.0336 440.057 45.7664 442.125 46.702V58.6777C439.932 57.6798 437.786 56.8533 435.687 56.1984C433.588 55.5435 431.442 55.216 429.249 55.216C425.301 55.216 422.122 56.1984 419.709 58.1631C417.297 60.1279 416.091 63.3245 416.091 67.753C416.091 72.431 417.156 75.9551 419.286 78.3253C421.417 80.6955 424.957 81.8806 429.907 81.8806C432.225 81.8806 434.465 81.4752 436.627 80.6643C438.788 79.8535 440.652 79.0114 442.219 78.1382V90.0203C440.026 91.143 437.739 92.0163 435.358 92.64C432.977 93.2637 430.22 93.5756 427.087 93.5756Z" fill="#F7F7F8"/>
<path d="M470.477 93.7627C465.715 93.7627 461.502 92.7804 457.836 90.8156C454.171 88.8509 451.32 86.0441 449.283 82.3952C447.247 78.7464 446.229 74.3958 446.229 69.3436C446.229 61.1103 448.281 54.7327 452.385 50.2106C456.489 45.6885 462.363 43.4275 470.007 43.4275C475.27 43.4275 479.516 44.5502 482.742 46.7956C485.969 49.0411 488.335 52.3157 489.838 56.6194C491.342 60.9232 492.063 66.1626 492 72.3375H455.815L454.312 63.4493H480.44L478.372 67.8466C478.309 62.7944 477.589 59.2391 476.21 57.1808C474.832 55.1225 472.576 54.0933 469.443 54.0933C467.689 54.0933 466.107 54.5299 464.697 55.4032C463.287 56.2764 462.191 57.7266 461.408 59.7537C460.624 61.7808 460.233 64.572 460.233 68.1273C460.233 72.6182 461.314 76.0799 463.475 78.5125C465.637 80.945 469.099 82.1613 473.861 82.1613C475.615 82.1613 477.354 81.9586 479.077 81.5532C480.8 81.1477 482.413 80.6644 483.917 80.103C485.421 79.5416 486.705 79.0426 487.771 78.606V90.5817C485.515 91.5173 482.993 92.2814 480.205 92.8739C477.417 93.4665 474.174 93.7627 470.477 93.7627Z" fill="#F7F7F8"/>
<path d="M92.3724 35.8178C92.3724 27.6002 90.9782 20.8794 88.2057 15.6245C85.4331 10.3851 81.5013 6.45561 76.3948 3.86711C71.3039 1.27862 65.3201 -0.015625 58.4591 -0.015625C47.7761 -0.015625 39.4583 3.02507 33.5059 9.09088C28.7753 13.9092 25.9557 20.552 24.9689 28.9724C27.7415 28.4266 30.702 28.1147 33.8975 28.1147C40.7585 28.1147 46.7423 29.409 51.8331 31.9975C56.924 34.586 60.8558 38.4999 63.644 43.7548C66.4166 49.0098 67.8107 55.7305 67.8107 63.9482C67.8107 66.4275 67.6541 68.7665 67.3878 70.9964C73.9355 69.7333 79.3083 66.9889 83.475 62.7319C89.3961 56.6661 92.3724 47.6844 92.3724 35.8178Z" fill="#ECECEC"/>
<path d="M40.5705 67.9713C35.511 65.3828 31.5792 61.4377 28.7597 56.1203C25.9557 50.803 24.546 44.0823 24.546 35.927C24.546 33.4788 24.7026 31.2022 24.9532 29.0035C18.4682 30.2822 13.0954 33.011 8.92865 37.268C2.97622 43.3338 0 52.2688 0 64.0729C0 72.2126 1.40979 78.949 4.2137 84.2663C7.01761 89.5836 10.9493 93.5287 16.0246 96.1172C21.0841 98.7057 27.0522 100 33.9132 100C44.6589 100 52.9923 96.9593 58.9291 90.8935C63.6127 86.0907 66.4166 79.448 67.4035 71.012C64.6309 71.5421 61.6703 71.854 58.4748 71.854C51.6139 71.854 45.6458 70.5598 40.5862 67.9713H40.5705Z" fill="white"/>
<path d="M63.6441 43.7861C60.8715 38.5467 56.9398 34.6172 51.8332 32.0287C46.7423 29.4402 40.7585 28.146 33.8976 28.146C30.702 28.146 27.7415 28.4579 24.9689 29.0036C24.7183 31.2023 24.5616 33.4945 24.5616 35.9271C24.5616 44.0668 25.9714 50.8031 28.7753 56.1204C31.5793 61.4378 35.511 65.3829 40.5862 67.9714C45.6458 70.5598 51.6139 71.8541 58.4749 71.8541C61.6704 71.8541 64.6309 71.5578 67.4035 71.0121C67.6698 68.7822 67.8264 66.4588 67.8264 63.9639C67.8264 55.7462 66.4323 49.0255 63.6597 43.7705L63.6441 43.7861Z" fill="#F7F7F8"/>
</g>
<defs>
<clipPath id="clip0_114_967">
<rect width="492" height="100" fill="white"/>
</clipPath>
</defs>
</svg>
